<?xml version="1.0" encoding="UTF-8" standalone="no"?>
<!-- Created with Inkscape (http://www.inkscape.org/) -->

<svg
   width="281.10788mm"
   height="392.12921mm"
   viewBox="0 0 281.10788 392.12921"
   version="1.1"
   id="svg1"
   xml:space="preserve"
   inkscape:version="1.3.2 (091e20e, 2023-11-25, custom)"
   sodipodi:docname="jardesigner_logo_v3.svg"
   inkscape:export-filename="jardesigner_logo_v3_5dpi.png"
   inkscape:export-xdpi="5"
   inkscape:export-ydpi="5"
   xmlns:inkscape="http://www.inkscape.org/namespaces/inkscape"
   xmlns:sodipodi="http://sodipodi.sourceforge.net/DTD/sodipodi-0.dtd"
   xmlns="http://www.w3.org/2000/svg"
   xmlns:svg="http://www.w3.org/2000/svg"><sodipodi:namedview
     id="namedview1"
     pagecolor="#ffffff"
     bordercolor="#666666"
     borderopacity="1.0"
     inkscape:showpageshadow="2"
     inkscape:pageopacity="0.0"
     inkscape:pagecheckerboard="0"
     inkscape:deskcolor="#d1d1d1"
     inkscape:document-units="mm"
     inkscape:zoom="0.19213868"
     inkscape:cx="374.72934"
     inkscape:cy="991.47137"
     inkscape:window-width="1920"
     inkscape:window-height="1001"
     inkscape:window-x="-9"
     inkscape:window-y="-9"
     inkscape:window-maximized="1"
     inkscape:current-layer="g14" /><defs
     id="defs1"><clipPath
       clipPathUnits="userSpaceOnUse"
       id="clipPath2"><rect
         style="opacity:0.96;fill:none;stroke:#ff0000;stroke-width:9.99998;stroke-dasharray:none;stroke-opacity:0.7;paint-order:markers stroke fill"
         id="rect3"
         width="136.17859"
         height="178.87929"
         x="-481.10617"
         y="-395.49683" /></clipPath><clipPath
       clipPathUnits="userSpaceOnUse"
       id="clipPath5"><rect
         style="opacity:0.96;fill:#d4aa00;fill-opacity:1;stroke:#d4aa00;stroke-width:7.99997;stroke-linecap:round;stroke-dasharray:none;stroke-opacity:0.7;paint-order:markers stroke fill"
         id="rect6"
         width="136.94624"
         height="136.23317"
         x="-259.50311"
         y="-253.28188" /></clipPath></defs><g
     inkscape:label="Layer 1"
     inkscape:groupmode="layer"
     id="layer1"
     transform="translate(482.43237,64.073925)"><path
       style="fill:none;stroke:#000000;stroke-width:5;stroke-linecap:butt;stroke-linejoin:miter;stroke-dasharray:none;stroke-opacity:1"
       d="m -354.43413,127.88329 c 9.28189,-1.10753 17.31275,-0.81878 25,0"
       id="path11"
       sodipodi:nodetypes="cc" /><g
       id="g14"
       transform="translate(-0.09521975,1.0583333)"><g
         id="g5"
         transform="translate(68.79167,375.70851)"><path
           style="fill:#000000"
           d="m -419.21029,-95.912453 c -12.18526,-0.44943 -25.60532,-2.78147 -34.19469,-5.942097 -8.47934,-3.12015 -13.40301,-6.58758 -15.57228,-10.96656 -1.5653,-3.15979 -1.54287,-2.58463 -1.55297,-39.80536 -0.006,-21.80949 0.0885,-34.78557 0.26335,-36.17977 0.87105,-6.94678 4.07341,-12.77688 9.6493,-17.5672 2.61561,-2.24711 3.23063,-3.24388 3.31978,-5.38046 0.0766,-1.8352 0.0682,-1.86269 -0.67347,-2.2006 -0.79457,-0.36203 -2.87715,-2.24703 -3.59255,-3.25172 -1.46749,-2.0609 -1.08904,-5.32547 1.01513,-8.75666 0.74712,-1.2183 1.48083,-2.74639 1.63047,-3.39576 0.14964,-0.64938 0.2776,-3.20474 0.28435,-5.6786 0.0142,-5.21136 0.23601,-6.00025 2.14753,-7.63884 3.79442,-3.25264 10.90178,-5.48025 22.75613,-7.13228 l 0.95821,-0.13354 0.41577,2.68983 c 0.22868,1.47941 0.33324,2.7732 0.23237,2.87509 -0.10087,0.10188 -1.81115,0.43357 -3.80064,0.73707 -7.48671,1.14212 -13.98547,3.12878 -16.34567,4.99685 -0.56756,0.44921 -0.60252,0.56851 -0.28041,0.95663 0.2024,0.24388 1.02997,0.77423 1.83904,1.17857 3.96322,1.98061 11.58928,3.65851 21.31479,4.68971 5.66327,0.60048 25.00193,0.69109 30.29479,0.14194 7.78856,-0.80808 15.82748,-2.35515 19.87538,-3.82497 1.94541,-0.70639 4.2017,-1.94474 4.2017,-2.30607 0,-0.53145 -2.12136,-1.92477 -4.10104,-2.6936 -1.16417,-0.45211 -3.87585,-1.26615 -6.02595,-1.80897 -2.15011,-0.54283 -3.97038,-1.04805 -4.04504,-1.12272 -0.16097,-0.16096 0.56117,-5.20183 0.77597,-5.41662 0.21729,-0.21729 6.19473,1.15519 8.99439,2.06522 4.77352,1.55162 8.77365,4.02386 9.83663,6.07943 0.29609,0.57258 0.38734,1.87279 0.39219,5.58799 0.007,5.51211 0.14426,6.35447 1.34166,8.24472 1.94217,3.06596 2.41857,4.15573 2.55394,5.84217 0.0794,0.98917 -0.001,2.06545 -0.1996,2.66675 -0.41238,1.24953 -2.00292,3.00493 -3.72257,4.10843 -1.28739,0.82612 -1.30253,0.85188 -1.29105,2.1974 0.0178,2.0889 0.57388,3.33255 2.02326,4.52506 5.3316,4.38673 8.63247,9.28126 10.17849,15.09267 0.9049,3.40148 1.00228,7.76444 0.94197,42.20104 -0.066,37.69877 0.0924,34.63849 -1.96884,38.04182 -2.59859,4.29063 -7.52858,7.71107 -15.15524,10.51473 -11.1292,4.091237 -28.70989,6.359577 -44.71458,5.769277 z m 12.69999,-5.917337 c 14.80483,-0.8542 26.80776,-3.36594 34.79271,-7.28074 4.69621,-2.30242 7.31659,-4.74359 8.20067,-7.63984 0.58641,-1.92108 0.60146,-69.79373 0.0161,-72.57647 -1.1625,-5.52633 -3.47371,-9.41677 -7.67849,-12.92509 -1.23604,-1.0313 -2.60739,-2.32816 -3.04744,-2.8819 -0.83805,-1.05454 -1.85645,-3.89459 -1.85645,-5.17712 0,-0.41265 -0.11817,-0.8233 -0.26259,-0.91256 -0.14443,-0.0893 -1.1267,0.0778 -2.18282,0.37115 -6.02337,1.6733 -14.2054,2.89022 -23.21918,3.45343 -5.57596,0.3484 -19.3993,0.35248 -24.20937,0.007 -9.478,-0.68047 -19.13868,-2.26614 -25.03172,-4.10862 -0.33762,-0.10556 -0.45643,0.12768 -0.57548,1.12966 -0.38147,3.2109 -1.63401,5.35681 -4.49148,7.69503 -4.45396,3.6446 -6.68279,6.92922 -8.02326,11.8239 -0.48834,1.78314 -0.50722,3.19153 -0.50722,37.83541 v 35.98334 l 0.64485,1.32291 c 1.36326,2.79675 5.27175,5.69587 10.49865,7.78737 11.34419,4.53929 30.57965,7.03653 46.93253,6.093 z m 7.14375,-111.50272 c 7.93321,-0.72473 15.52482,-2.0362 20.90209,-3.6109 3.2259,-0.94468 7.14375,-2.76277 7.14375,-3.31508 0,-0.20858 -0.70435,-1.80776 -1.56522,-3.55373 -1.08393,-2.19837 -1.66078,-3.74102 -1.87599,-5.01694 -0.17092,-1.01335 -0.39629,-1.84245 -0.50081,-1.84245 -0.10452,0 -1.16081,0.35429 -2.34732,0.78731 -4.67857,1.70747 -10.11423,2.82708 -17.92004,3.6911 -19.50975,2.15951 -40.85608,0.76869 -53.89577,-3.51159 l -3.36036,-1.10304 -0.3113,1.85405 c -0.22596,1.34582 -0.73723,2.67454 -1.86516,4.84728 -0.85462,1.64629 -1.55386,3.16284 -1.55386,3.37012 0,0.83138 3.80582,2.6349 8.33437,3.94954 6.41109,1.86114 16.22055,3.38825 24.07708,3.74825 1.89177,0.0867 3.49861,0.21226 3.57076,0.27905 0.29134,0.26974 16.84924,-0.17845 21.16778,-0.57297 z"
           id="path3"
           sodipodi:nodetypes="sssscssssssssscsssssssssssssssscsscsssssssscssssssscscssssscssccssssssssscsssssss" /><ellipse
           style="opacity:0.96;fill:#000000;fill-opacity:1;stroke:none;stroke-width:10;stroke-dasharray:none;stroke-opacity:0.7;paint-order:markers stroke fill"
           id="path4"
           ry="11.93841"
           rx="44.960522"
           cy="-118.2511"
           cx="-413.94391" /><path
           style="fill:none;stroke:#000000;stroke-width:8;stroke-linecap:round;stroke-linejoin:miter;stroke-dasharray:none;stroke-opacity:1"
           d="m -455.90443,-177.47484 v 58.57657"
           id="path5" /></g><g
         id="g12"><path
           style="fill:#ffcc00;stroke:#ffcc00"
           d="m -337.87235,141.45974 c -0.0628,-0.10914 -0.19536,-0.79375 -0.29456,-1.52135 -0.62959,-4.61783 -1.91103,-10.65123 -3.34362,-15.74271 -0.55276,-1.96453 -1.30372,-4.70297 -1.66879,-6.08541 -0.7975,-3.01999 -1.46769,-5.2765 -2.35744,-7.9375 -0.36493,-1.09141 -0.85005,-2.63922 -1.07804,-3.43959 -0.22798,-0.80036 -1.02282,-3.47927 -1.76629,-5.95314 -4.10721,-13.666454 -5.20552,-20.497253 -4.93486,-30.691671 0.15046,-5.667101 0.44006,-8.313132 1.5058,-13.758333 0.48624,-2.484314 0.78633,-3.725203 2.12755,-8.797396 0.74672,-2.823961 1.25507,-5.971947 1.17792,-7.294407 -0.29668,-5.08547 -1.96689,-9.27052 -6.11033,-15.31069 -3.83358,-5.58846 -4.57084,-7.09054 -5.6876,-11.58775 -0.31054,-1.250571 -0.49604,-1.461541 -4.773,-5.428512 -3.64391,-3.37979 -4.88925,-5.2516001 -8.82308,-13.26149 -6.18793,-12.599588 -9.2248,-16.413948 -15.4777,-19.440198 -2.18891,-1.05938 -3.92367,-1.55661 -7.4151,-2.12538 -2.6087,-0.42498 -2.52077,-0.7597 0.15536,-0.59141 2.94075,0.18493 7.06312,1.17933 9.12033,2.20002 5.87369,2.91424 9.11921,7.03173 15.54755,19.724708 2.4065,4.75172997 4.15874,7.3986298 6.03006,9.1089099 3.32827,3.0418501 5.66551,3.1948701 6.70969,0.4393101 0.45431,-1.1989201 0.0787,-2.7285502 -1.33899,-5.45311 -2.19464,-4.21766 -4.86157,-9.739668 -6.45022,-13.355518 -5.05151,-11.49743 -8.29221,-15.27083 -17.64122,-20.54106 -4.08233,-2.30129 -8.22616,-5.47669 -8.97646,-6.87863 -0.39207,-0.7326 -0.16982,-0.61832 1.38636,0.71282 2.05708,1.75962 3.51218,2.67017 8.79563,5.50402 2.60652,1.39804 5.61827,3.21526 6.69277,4.03827 3.83686,2.93879 6.6307,6.69305 9.84203,13.22532 1.06512,2.16659 2.60781,5.30624 3.4282,6.977 3.62964,7.391888 6.9614,11.25512797 8.93227,10.357128 0.53893,-0.24555 0.62915,-0.47415 0.62915,-1.59421 0,-2.05692 -1.95543,-14.786398 -2.80853,-18.282948 -0.95906,-3.93088 -2.92055,-8.90992 -4.33425,-11.00205 -2.8891,-4.27556 -4.84919,-6.07805 -11.27744,-10.37067 -4.17688,-2.7892 -6.96391,-5.26612 -8.30515,-7.38104 -0.96508,-1.52177 -1.02117,-2.09532 -0.099,-1.01187 2.8555,3.35477 4.84765,4.92172 10.27192,8.07956 5.70976,3.32404 8.87462,6.37566 11.7909,11.36903 2.05649,3.52118 4.06189,9.87212 5.30465,16.79933 0.43423,2.42043 1.78508,7.6881482 2.27048,8.853858 0.72098,1.73147 1.67518,2.33838 2.18342,1.38873 0.5055,-0.94454 1.12059,-7.188498 1.2175,-12.359258 0.10691,-5.70392 -0.1313,-9.42741 -0.80402,-12.56771 -0.52839,-2.46661 -2.08122,-6.88326 -2.97676,-8.46666 -0.86216,-1.52441 -3.12856,-4.38459 -5.34622,-6.74688 -3.03473,-3.23266 -5.3272,-6.85434 -6.31541,-9.9772 -1.00795,-3.18526 -0.59284,-3.10707 0.99604,0.18762 1.76473,3.65932 2.65712,4.85022 7.0383,9.39271 5.26116,5.45484 6.96777,8.54377 8.39027,15.18619 0.75416,3.52155 0.81098,4.20791 1.00979,12.19818 0.20963,8.4252694 0.32346,10.0085885 0.84645,11.773958 0.57967,1.95669 1.74799,2.42825 2.48502,1.003 0.47224,-0.91322 0.47394,-0.75811 -0.14208,-12.944908 -0.23528,-4.65458 -0.0458,-12.1417 0.35057,-13.85497 0.0673,-0.29104 0.26344,-1.30307 0.43578,-2.24895 0.5911,-3.24416 2.58735,-9.49724 5.02573,-15.74271 2.02604,-5.18934 3.15699,-10.00734 3.21284,-13.68713 0.0325,-2.14145 0.37704,-1.15101 0.43896,1.26187 0.0933,3.6361 -1.1576,9.19485 -4.01669,17.84922 -0.93746,2.83765 -1.8459,5.87375 -2.01875,6.74687 -0.17285,0.87313 -0.41887,2.06375 -0.5467,2.64583 -1.03462,4.71108 -1.26824,16.96176 -0.42131,22.09271 1.0654,6.4544779 1.80256,8.808418 2.84373,9.080688 0.96784,0.2531 2.22978,-1.24837 4.03396,-4.7996489 3.76694,-7.4146991 5.89158,-15.8820991 8.37702,-33.3851991 0.46494,-3.27422 1.01062,-6.54844 1.21264,-7.27605 0.34998,-1.26053 0.36046,-1.16695 0.22234,1.98438 -0.25426,5.80107 -1.10511,13.99395 -1.97841,19.05 -1.24936,7.23339 -2.85751,12.94912 -6.06704,21.5635379 -1.83937,4.9369101 -1.87699,5.1454601 -1.07323,5.94923007 0.97228,0.97227994 2.12079,-0.036 3.77788,-3.31657997 0.68557,-1.35723 2.57602,-6.779388 2.57602,-7.388488 0,-0.91197 2.32117,-7.23523 3.70435,-10.09128 1.35757,-2.80318 1.81352,-3.46727 3.63309,-5.29167 1.35603,-1.35964 2.85952,-2.53405 4.31694,-3.37208 6.58094,-3.78411 8.7565,-5.79996 10.97732,-10.17144 0.5322,-1.04758 1.06983,-1.96785 1.19473,-2.04504 0.42473,-0.2625 -0.59199,2.64767 -1.52822,4.37423 -1.83458,3.38325 -3.51264,5.07198 -8.0107,8.06163 -7.2037,4.78796 -8.96234,7.42154 -12.05033,18.04551 -2.4369,8.383928 -3.09415,10.313268 -4.24238,12.45335791 -0.64339,1.19916989 -1.1698,2.53861999 -1.1698,2.97655999 0,0.9284301 0.81023,1.8546001 1.62242,1.8546001 0.95525,0 2.36098,-1.07096 3.26909,-2.4905501 1.32022,-2.06384002 1.5443,-2.82938999 3.33687,-11.4000688 0.60972,-2.9152091 1.94196,-6.7182591 3.30469,-9.4336691 1.31489,-2.62007 3.45977,-4.79645 5.86911,-5.9553 1.82554,-0.87805 2.18238,-0.95645 4.39699,-0.96612 2.28785,-0.01 2.56468,0.0537 5.45292,1.25413 3.75974,1.56266 7.27427,2.53325 9.17299,2.53325 0.89367,0 1.37942,0.10056 1.27805,0.26458 -0.0904,0.14632 -1.28587,0.26459 -2.67437,0.26459 -2.33018,0 -2.80025,-0.0986 -6.53282,-1.36981 -3.63939,-1.2395 -4.2359,-1.36841 -6.27093,-1.35515 -3.37473,0.022 -5.51397,1.10642 -7.62654,3.86611 -2.45156,3.2025 -3.55558,6.4356 -5.33669,15.628298 -0.80089,4.13361991 -2.0671,8.01555 -3.24098,9.93617 -0.31711,0.51883 -1.31863,1.92026 -2.22561,3.11428 -1.2672,1.66825 -1.77841,2.617861 -2.20773,4.101042 -1.21805,4.20802 -1.67345,5.4733 -2.89738,8.04995 -1.44443,3.0409 -2.62337,4.86808 -5.6802,8.80349 -3.90961,5.0333 -4.21187,5.43678 -5.63206,7.51818 -3.3817,4.95618 -5.89865,12.368377 -7.38352,21.743893 -0.57563,3.634475 -0.7824,12.907816 -0.37723,16.917809 0.41628,4.119884 1.88193,11.476198 3.0741,15.429317 1.64676,5.460472 3.58241,11.480388 4.74233,14.748728 1.81787,5.12224 5.58164,16.88333 6.7314,21.03437 0.91948,3.31968 2.92468,12.70204 2.92468,13.68465 0,0.25304 -0.69603,0.33827 -2.76251,0.33827 -1.51938,0 -2.8139,-0.0893 -2.8767,-0.19844 z"
           id="path8"
           sodipodi:nodetypes="csssssssssssssssssssssssssssssssssssscssssssssssssssssssssssssssssssssssssssssssssssssssssssssssssssssssssssssscc" /><ellipse
           style="opacity:0.96;fill:none;fill-opacity:1;stroke:#ffeeaa;stroke-width:5;stroke-linecap:round;stroke-dasharray:none;stroke-opacity:1;paint-order:markers stroke fill"
           id="ellipse8"
           cx="-343.6282"
           cy="12.490962"
           rx="9.9909391"
           ry="9.990962" /><path
           style="fill:#ffcc00;stroke:none;stroke-width:0.264583px;stroke-linecap:butt;stroke-linejoin:miter;stroke-opacity:1"
           d="m -338.38046,152.54927 c 2.32582,0.1444 4.59055,-0.0167 6.80162,-0.44599 0.50793,3.01946 0.28544,5.7811 -0.12386,8.92514 -2.31015,0.60141 -4.8716,0.49819 -7.22726,0.0439 0.62344,-2.78628 0.492,-5.39723 0.5495,-8.52308 z"
           id="path10"
           sodipodi:nodetypes="ccccc" /><path
           style="fill:#ffcc00;stroke:none;stroke-width:0.264583px;stroke-linecap:butt;stroke-linejoin:miter;stroke-opacity:1"
           d="m -339.82268,171.83766 c 2.32582,0.1444 4.59055,-0.0167 6.80162,-0.44599 0.30785,1.83004 -21.41994,27.45884 -30.81367,50.75102 -6.10535,15.1385 -1.23595,31.25836 -1.39718,32.49685 0.0329,0.0233 0,0 0,0 0.26089,-1.16597 -9.97835,-18.93228 -3.56651,-34.86211 8.91031,-22.13711 28.9423,-46.12202 28.97574,-47.9398 z"
           id="path10-2"
           sodipodi:nodetypes="ccsccscc" /></g><g
         id="g13"><path
           style="fill:#000080;stroke:#000080"
           d="m -327.51938,141.21366 c -0.0754,-0.12203 -0.1357,-1.9478 -0.13394,-4.05726 0.008,-8.99559 1.49663,-15.50779 5.32895,-23.30447 4.22481,-8.59518 11.28787,-15.314439 23.23103,-22.100201 1.65614,-0.940966 3.3486,-2.022604 3.76103,-2.40364 0.41243,-0.381036 0.80792,-0.634752 0.87886,-0.563815 0.28468,0.284681 4.62689,-4.442019 6.01591,-6.548601 2.31077,-3.504504 5.25516,-9.714517 6.14698,-12.964583 0.86942,-3.168482 0.30781,-5.894714 -1.8734,-9.093917 -2.99893,-4.398576 -7.70923,-6.787475 -13.36255,-6.777021 -2.35881,0.0044 -5.94826,0.764406 -7.06466,1.4959 -1.01676,0.666207 -2.09032,1.930547 -2.99489,3.527121 -0.45347,0.800365 -0.98257,1.633802 -1.17579,1.852084 -0.19322,0.218281 -0.6499,0.771611 -1.01484,1.229623 -0.68902,0.864746 -3.23114,2.639604 -3.45707,2.413667 -0.0709,-0.07092 0.43962,-0.581265 1.13453,-1.134094 1.98884,-1.582175 2.87997,-2.631266 3.76892,-4.436984 1.09068,-2.215482 1.14016,-3.531865 0.18007,-4.790607 -0.83025,-1.088512 -1.74253,-1.6154 -5.8605,-3.38474 -1.60072,-0.687774 -2.7749,-1.255775 -2.60928,-1.262224 0.61444,-0.02392 5.07518,1.360762 7.63637,2.370448 3.44061,1.35638 4.90761,1.675943 5.87429,1.279616 0.40716,-0.166933 0.91888,-0.338289 1.13717,-0.380789 0.21828,-0.0425 0.66476,-0.388034 0.99218,-0.76785 0.91515,-1.061592 0.73901,-3.566275 -0.46514,-6.614191 -0.11498,-0.291042 -0.35907,-0.926951 -0.54241,-1.413131 -0.39003,-1.034241 -2.20513,-3.902235 -2.85673,-4.513845 -1.24535,-1.1689 -1.89288,-2.05462 -1.50211,-2.05462 0.52587,0 2.81895,2.64596 3.72831,4.302069 0.39208,0.714052 1.09573,1.953121 1.56367,2.753485 0.46794,0.800365 1.01282,1.871927 1.21085,2.38125 0.19803,0.509323 0.7568,1.608098 1.24173,2.441722 1.09596,1.884043 2.36164,2.669507 5.2286,3.244786 2.72531,0.546855 4.40176,1.085963 6.24948,2.009687 1.75984,0.879792 4.90597,3.339332 6.60091,5.160372 1.97204,2.118758 3.12356,3.018433 3.86338,3.018433 0.79315,0 2.04456,-1.196303 1.83169,-1.751032 -0.0772,-0.201099 -0.008,-0.365635 0.15267,-0.365635 0.20217,0 0.25173,-0.723476 0.1599,-2.334061 -0.11441,-2.006542 -0.29379,-2.702668 -1.27834,-4.960937 -0.62989,-1.444782 -1.49958,-3.222189 -1.93266,-3.949793 -1.41934,-2.384645 -4.47889,-6.314455 -6.38571,-8.202083 -1.61271,-1.596473 -2.39916,-2.114153 -5.69841,-3.750963 -2.94489,-1.46101 -4.25744,-2.28694 -5.69203,-3.58177 -2.95561,-2.66768 -3.30972,-2.86357 -5.60981,-3.10334 -1.82966,-0.19074 -3.39543,-0.64223 -3.77044,-1.08722 -0.0728,-0.0863 -0.34065,-0.23385 -0.59531,-0.32781 -0.25466,-0.094 -0.46302,-0.30334 -0.46302,-0.4653 0,-0.16863 0.36747,-0.0694 0.85989,0.23208 0.47294,0.2896 1.3819,0.66539 2.01991,0.83509 2.11902,0.56365 3.20561,-0.11918 3.20561,-2.01445 0,-0.65303 0.10422,-1.12293 0.2316,-1.04421 0.12737,0.0787 0.71757,0.96116 1.31155,1.96097 1.38033,2.32345 3.63779,4.409 6.15589,5.68712 3.36305,1.707 5.09007,1.55992 5.95369,-0.50701 0.65547,-1.56875 1.10381,-4.2785 1.05889,-6.39986 -0.0455,-2.15091 -0.13742,-2.37069 -2.9558,-7.07083 -0.85532,-1.4264 -0.8064,-1.80384 0.0857,-0.66146 1.71616,2.19755 3.39366,3.3259 4.52497,3.04364 1.00938,-0.25183 2.29904,-1.30933 3.40756,-2.79415 0.53118,-0.7115 1.00927,-1.25017 1.0624,-1.19704 0.23957,0.23958 -0.78533,2.0544 -2.27603,4.03023 -0.89491,1.18615 -1.62711,2.23972 -1.62711,2.34126 0,0.10155 -0.17209,0.55982 -0.38241,1.01837 -0.92966,2.02689 -1.18496,6.08539 -0.5795,9.21232 0.35904,1.85428 1.46862,3.96683 2.91244,5.545054 4.33985,4.74383 6.21452,7.437631 8.42621,12.108048 2.71168,5.726257 3.22022,6.665308 4.24772,7.843666 2.35478,2.700516 5.00018,1.93261 8.20323,-2.381224 3.01646,-4.062543 5.2141,-9.616011 5.42755,-13.715474 0.16557,-3.180093 -0.26309,-4.93052 -1.96673,-8.03113 -2.34078,-4.2602 -3.01943,-5.83182 -3.68807,-8.54093 -0.34934,-1.41539 -1.23849,-3.85249 -1.97589,-5.41577 -0.73739,-1.56328 -1.28846,-2.98215 -1.22459,-3.15304 0.0639,-0.17088 0.23937,-0.002 0.38999,0.37559 0.31497,0.78928 1.61622,1.42568 2.40392,1.17567 0.29538,-0.0937 0.83994,-0.53041 1.21013,-0.97036 0.80109,-0.95204 0.8305,-0.77764 0.18845,1.1175 -1.27573,3.7656 -0.17245,8.47705 2.96081,12.64385 2.06732,2.74926 2.94991,3.47101 4.24448,3.47101 0.90471,0 2.3119,-1.45167 3.17431,-3.27465 0.86819,-1.8352 1.07211,-4.94109 0.5146,-7.83785 -0.43293,-2.24945 -0.65569,-7.67292 -0.31515,-7.67292 0.20503,0 0.33619,0.76669 0.25336,1.48095 -0.0651,0.5613 1.00507,5.32696 1.44069,6.41568 0.24234,0.60565 0.80897,1.41114 1.2592,1.78998 0.6804,0.57251 1.00903,0.66733 1.94662,0.56165 1.43252,-0.16147 4.71186,-1.71273 6.85776,-3.24402 0.91212,-0.65087 1.78963,-1.18341 1.95002,-1.18341 0.16039,0 0.36015,-0.17859 0.44391,-0.39687 0.0838,-0.21828 0.26673,-0.39688 0.40659,-0.39688 0.55353,0 -1.01599,1.71641 -2.98347,3.26268 -2.03118,1.59634 -2.69425,1.9885 -5.92302,3.50296 -2.46475,1.1561 -3.81875,2.71265 -5.65311,6.49878 -1.97712,4.080786 -2.30578,5.041059 -4.24398,12.400168 -1.0634,4.037599 -1.81988,6.321146 -3.46219,10.451041 -0.75228,1.891771 -1.43387,3.995141 -1.51464,4.674156 -0.12848,1.080016 -0.0613,1.320159 0.5368,1.918229 1.32218,1.322189 3.01491,0.910491 10.0197,-2.436957 5.47141,-2.614676 5.98753,-3.139692 8.38741,-8.531984 2.04508,-4.595073 2.1483,-5.146537 1.49304,-7.976296 -0.59198,-2.556482 -0.65685,-3.51836 -0.36746,-5.449034 0.41083,-2.740883 2.46414,-6.494763 4.4717,-8.175203 0.8595,-0.71945 0.85149,-0.69569 -0.22642,0.67179 -2.31096,2.93177 -3.71,6.954162 -3.35513,9.646323 0.40138,3.044985 1.60328,4.531302 3.51002,4.340628 1.42301,-0.142302 2.33076,-0.85178 4.92453,-3.848922 2.57281,-2.972928 3.8649,-4.243299 3.8649,-3.799939 0,0.172746 -0.11906,0.314084 -0.26458,0.314084 -0.14553,0 -0.26459,0.164016 -0.26459,0.364479 0,0.200463 -0.18864,0.521036 -0.4192,0.712386 -0.91139,0.756382 -2.01172,2.694889 -2.09118,3.68412 -0.099,1.23234 0.36546,1.744786 2.02589,2.235225 1.12693,0.332861 1.09738,0.340483 -1.77986,0.459139 -2.70655,0.111616 -3.03866,0.185221 -4.43157,0.982165 -4.3353,2.480406 -7.05523,6.978255 -6.28713,10.396797 0.63382,2.82092 4.98357,4.923987 10.21438,4.938565 5.38511,0.01501 9.54919,-2.698862 11.91758,-7.767096 0.64564,-1.381616 1.23088,-2.51203 1.30054,-2.51203 0.0697,0 0.1087,0.684609 0.0867,1.521354 -0.0923,3.517173 2.32843,5.06344 7.00406,4.473901 1.46317,-0.184487 3.13125,-0.873807 4.89982,-2.024806 l 1.24014,-0.807094 -0.92604,0.829508 c -1.68325,1.507776 -3.22272,2.331657 -5.16375,2.763496 -1.75273,0.389945 -2.12341,0.390806 -4.32978,0.01005 -1.32713,-0.229024 -2.69283,-0.416407 -3.03489,-0.416407 -0.77662,0 -2.60208,0.959073 -4.29908,2.258687 -0.71305,0.546074 -2.04967,1.331917 -2.97027,1.746318 -4.42108,1.990126 -7.86564,2.046747 -13.27515,0.218214 -5.13597,-1.736072 -6.64303,-1.522759 -11.77396,1.66652 -4.44647,2.763833 -6.70605,5.37698 -5.60313,6.479893 0.61684,0.616842 2.48743,0.826371 7.53279,0.843762 2.51652,0.0087 6.26699,0.205055 8.33438,0.436401 5.69423,0.6372 5.37181,0.699636 16.438,-3.183235 4.66136,-1.635564 8.25372,-2.28186 9.94275,-1.788787 0.87212,0.254594 0.82591,0.272102 -0.79375,0.300666 -2.8774,0.05075 -4.24545,0.477463 -11.90624,3.713744 -3.76843,1.591964 -5.29167,2.625302 -5.29167,3.589777 0,0.694967 2.07999,2.6871 3.39729,3.253785 0.69766,0.300127 2.33204,0.674761 3.63195,0.832521 2.35027,0.285235 3.40643,0.544419 5.10404,1.252536 1.3315,0.5554 0.83115,0.685956 -0.92537,0.241457 -4.39541,-1.112294 -6.70343,-0.443092 -6.95433,2.016386 -0.0595,0.583274 -0.47842,0.05353 -0.74456,-0.941548 -0.1677,-0.626992 -0.63888,-1.475654 -1.04707,-1.885915 -1.14367,-1.149473 -4.49026,-3.325633 -6.13898,-3.991945 -1.87721,-0.758649 -5.64583,-1.530314 -6.80995,-1.394409 -0.48956,0.05715 -0.8901,-0.0043 -0.8901,-0.136487 0,-0.132221 -0.44649,-0.167195 -0.99219,-0.07772 -0.54571,0.08948 -1.46474,0.155671 -2.0423,0.147102 -1.92707,-0.02859 -4.75099,0.59146 -6.64229,1.458448 -4.78205,2.192136 -4.63925,5.038934 0.4047,8.068199 0.79396,0.476827 3.47286,1.910424 5.95313,3.185771 3.28177,1.687482 5.07203,2.443564 6.57542,2.777012 1.96205,0.435177 2.20774,0.434925 4.89001,-0.005 5.46278,-0.896027 9.53941,-0.198172 16.10057,2.756156 2.97075,1.337655 3.5714,1.464015 5.39718,1.135405 1.57582,-0.283622 1.57575,-0.283454 -0.49872,1.086759 -0.92073,0.608158 -1.71977,1.869529 -2.04623,3.230184 -0.18696,0.779241 -0.19727,0.769561 -0.56378,-0.529166 -0.60444,-2.141839 -1.17572,-2.995113 -2.72038,-4.063193 -1.96699,-1.360109 -4.78953,-2.346908 -7.73841,-2.705458 -9.12952,-1.110041 -11.63396,2.387763 -6.54024,9.134358 1.57114,2.08096 2.98312,3.05886 8.45519,5.85585 3.03095,1.54923 3.58891,2.35957 0.73545,1.0681 -5.08479,-2.30137 -8.14378,-3.04516 -8.14378,-1.98016 0,0.14431 -0.10604,0.19684 -0.23564,0.11674 -0.12961,-0.0801 -0.4535,0.18076 -0.71977,0.57969 -1.13406,1.6991 -0.23472,6.56338 2.09081,11.30867 0.24059,0.49091 0.21367,0.48726 -0.37238,-0.0506 -0.34744,-0.31887 -0.97236,-1.39043 -1.38871,-2.38125 -0.41635,-0.99082 -0.91231,-2.15868 -1.10212,-2.59525 -0.86395,-1.987 -1.24285,-4.30748 -1.2785,-7.82985 l -0.0364,-3.59653 -1.00171,-1.97322 c -2.6664,-5.252399 -6.7171,-8.033984 -15.79933,-10.849291 -3.88764,-1.205089 -6.03875,-1.0853 -7.00548,0.390117 -0.60279,0.91998 -0.12726,2.131268 2.24799,5.726177 2.59451,3.926739 3.17461,5.062807 4.48558,8.784637 1.21451,3.44794 1.86019,4.24068 5.29899,6.50584 3.08043,2.02909 5.01537,4.06242 6.22281,6.5392 0.54087,1.10946 0.92767,2.07293 0.85957,2.14103 -0.0681,0.0681 -0.61595,-0.63713 -1.21743,-1.56719 -2.33815,-3.61542 -6.4462,-6.78544 -8.79075,-6.78347 -2.72182,0.002 -3.77667,1.61767 -3.80037,5.81985 -0.009,1.52796 0.0667,3.0513 0.16732,3.38518 0.20717,0.68726 1.39217,2.24315 2.45959,3.2294 1.00597,0.92947 2.18222,2.6887 2.40529,3.5974 0.17146,0.69848 0.10567,0.66014 -0.72472,-0.4224 -1.11411,-1.4524 -2.7159,-2.39632 -3.72979,-2.19793 -0.39848,0.078 -0.67229,0.22627 -0.60846,0.32955 0.0638,0.10328 -0.0938,0.17896 -0.35024,0.16818 -0.26528,-0.0112 -1.19549,0.82272 -2.15778,1.93428 -1.89955,2.19423 -2.43961,2.10069 -0.88255,-0.15286 1.88674,-2.73071 2.4329,-3.65073 2.4538,-4.13351 0.0114,-0.26423 0.14681,-0.71587 0.30082,-1.00365 0.47071,-0.87953 -0.36001,-3.19383 -1.50833,-4.20207 -0.91152,-0.80033 -1.04538,-0.83751 -2.40388,-0.66778 -2.15783,0.2696 -4.93695,1.30564 -7.08344,2.64066 -0.7456,0.46373 -0.73757,0.4419 0.13229,-0.35987 0.9119,-0.8405 5.17428,-3.0313 7.85079,-4.03518 4.08833,-1.53342 4.93483,-6.08459 2.18275,-11.73545 -2.14154,-4.397229 -5.92967,-8.140873 -9.26172,-9.152951 -1.01648,-0.308748 -2.08211,-0.50018 -2.36806,-0.425403 -0.28594,0.07478 -0.5749,0.04696 -0.64213,-0.06182 -0.0672,-0.108777 -2.30053,-0.276466 -4.9629,-0.372641 -2.66237,-0.09618 -6.09006,-0.289536 -7.61709,-0.429689 -2.55555,-0.234552 -7.63744,-0.394614 -10.18476,-0.320784 -4.79093,0.138856 -11.36874,3.026709 -17.75859,7.796538 -8.6073,6.42512 -14.18151,15.13438 -16.37756,25.58863 -0.55335,2.63423 -1.22664,9.73832 -1.04443,11.02012 0.18696,1.31523 0.19383,3.46835 0.012,3.76255 -0.28787,0.46579 -4.54791,0.94436 -4.7984,0.53905 z m 100.47719,-19.60797 c -0.17463,-0.17463 -0.3175,-0.51724 -0.3175,-0.76136 0,-0.24412 -0.1786,-0.59207 -0.39688,-0.77323 -0.21828,-0.18115 -0.39687,-0.45699 -0.39687,-0.61296 0,-0.28187 1.12908,1.11694 1.61598,2.00203 0.29057,0.52819 -0.0297,0.62053 -0.50473,0.14552 z m 8.26588,-12.00022 c -0.49319,-0.39513 -0.48995,-0.40002 0.0817,-0.12299 0.32742,0.15867 0.59531,0.34383 0.59531,0.41147 0,0.20247 -0.13721,0.144 -0.67703,-0.28848 z M -317.7149,48.898174 c 0.0899,-0.145521 0.21602,-0.264584 0.2802,-0.264584 0.0642,0 0.11667,0.119063 0.11667,0.264584 0,0.14552 -0.12609,0.264583 -0.2802,0.264583 -0.1541,0 -0.20661,-0.119063 -0.11667,-0.264583 z m 38.76146,-31.220838 c 0,-0.14552 0.12609,-0.26458 0.28019,-0.26458 0.15411,0 0.20662,0.11906 0.11668,0.26458 -0.0899,0.14553 -0.21603,0.26459 -0.2802,0.26459 -0.0642,0 -0.11667,-0.11906 -0.11667,-0.26459 z"
           id="path9"
           sodipodi:nodetypes="ccsssssssssssssssssssssssssssssssssssssssssssssssssssssssssssssssssssssssscsssssssssssssssssssssscssssssssssssssssssssscsscsssssssssssssssssssssssssssssssscsssssssssssssssssscsssssssssccsssssssssssssssssssssssssssccsssssssssssssssssssss" /><ellipse
           style="opacity:0.96;fill:none;fill-opacity:1;stroke:#afc6e9;stroke-width:4;stroke-linecap:round;stroke-dasharray:none;stroke-opacity:1;paint-order:markers stroke fill"
           id="ellipse8-1"
           cx="-268.83929"
           cy="77.107651"
           rx="7.4999819"
           ry="7.5" /><path
           style="fill:#000080;stroke:none;stroke-width:0.264583px;stroke-linecap:butt;stroke-linejoin:miter;stroke-opacity:1"
           d="m -320.10945,150.98432 c 0.75136,1.4676 1.64249,4.54918 2.00778,7.77929 -2.3747,0.84638 -4.49549,1.23217 -6.59959,1.32712 -0.38324,-3.34623 -0.73111,-4.04003 -1.95161,-7.98745 3.59716,-0.39557 4.4064,-0.50826 6.54342,-1.11896 z"
           id="path10-6"
           sodipodi:nodetypes="ccccc" /><path
           style="fill:#000080;stroke:none;stroke-width:0.264583px;stroke-linecap:butt;stroke-linejoin:miter;stroke-opacity:1"
           d="m -314.06403,169.98044 c 0.22139,1.31606 0.41579,19.75385 -12.22659,35.61427 -15.56245,19.52378 -18.63072,50.08902 -18.86162,51.8627 -2.31015,0.60141 2.35566,0.45429 0,0 0.36045,-1.61093 -1.1092,-34.21073 14.98567,-52.57914 10.89623,-12.43543 9.03323,-32.168 9.05749,-33.4866 2.66746,-0.29464 4.68492,-0.53597 7.04505,-1.41123 z"
           id="path10-6-3"
           sodipodi:nodetypes="csccscc" /></g><g
         id="g11"><path
           style="fill:#ff0000;stroke:#ff0000"
           d="m -359.23389,141.79564 -1.57142,-0.15396 -0.0843,-5.15937 c -0.13114,-8.02653 -1.57313,-15.52635 -4.29864,-22.3573 -3.76367,-9.43295 -12.56525,-20.033943 -19.85859,-23.918533 -2.95925,-1.57616 -4.82145,-2.01098 -8.59896,-2.00781 -3.181,0.003 -3.64397,0.0696 -6.15828,0.88995 -1.49528,0.48788 -4.5909,1.80821 -6.87916,2.93406 -4.31023,2.12069 -6.47416,2.934 -9.18756,3.45314 -4.26646,0.81628 -5.90852,1.81324 -7.14326,4.336946 -1.10574,2.260067 -1.44914,3.990347 -1.45255,7.318897 -0.005,4.55716 0.64476,6.35367 3.67332,10.16136 1.84223,2.31616 3.48685,3.94428 4.89025,4.84118 0.8827,0.56413 1.4184,0.69937 2.81037,0.70952 0.94588,0.007 2.18423,-0.0855 2.75189,-0.20537 l 1.03209,-0.21791 -0.70137,0.83352 c -0.87114,1.0353 -0.87813,1.51694 -0.0399,2.75213 0.96563,1.42293 0.80855,1.72796 -0.33073,0.64226 -1.74539,-1.6633 -3.79518,-2.86604 -4.88447,-2.86604 -0.8275,0 -1.05481,0.12741 -1.39259,0.78061 -0.22202,0.42933 -0.41173,1.11394 -0.42158,1.52135 -0.0156,0.6443 -0.046,0.67185 -0.23404,0.21158 -0.11887,-0.29104 -0.3577,-1.30308 -0.53074,-2.24896 -0.37784,-2.0654 -1.19106,-3.54075 -2.86465,-5.19705 -2.55283,-2.52646 -4.02461,-2.87225 -5.26888,-1.23788 -0.73962,0.97148 -0.74102,0.98123 -0.71133,4.96093 0.0405,5.43466 0.81408,8.16633 3.26782,11.53992 0.75526,1.03839 1.31023,1.95094 1.23328,2.02789 -0.077,0.0769 -0.64123,-0.28919 -1.25396,-0.81366 -1.35443,-1.15935 -2.51029,-1.43076 -3.62914,-0.85218 -0.82595,0.42711 -2.12742,2.09985 -2.84871,3.66132 l -0.3971,0.85967 0.16171,-0.79375 c 0.0889,-0.43657 0.5843,-1.74625 1.10082,-2.91042 1.85928,-4.19062 1.99435,-4.75696 1.86155,-7.80521 -0.16954,-3.89135 -1.03896,-5.82083 -2.62287,-5.82083 -2.36688,0 -4.92552,3.21549 -4.98818,6.26872 -0.0133,0.6461 -0.0968,0.56329 -0.64211,-0.63643 -0.45664,-1.00464 -0.81223,-1.42569 -1.30942,-1.55047 -1.12317,-0.2819 -2.37103,0.10081 -3.96157,1.21498 -1.82437,1.27798 -2.08786,1.33404 -0.90842,0.1933 1.30556,-1.26272 2.40652,-1.98109 3.98073,-2.59738 3.44644,-1.34925 7.43929,-4.23633 9.02462,-6.52535 0.40954,-0.59133 1.06168,-1.95067 1.44919,-3.02074 l 0.70456,-1.94559 0.006,-8.20212 c 0.006,-7.897893 -0.0151,-8.241363 -0.56354,-9.260443 -1.47225,-2.73566 -4.07778,-3.66779 -7.13193,-2.55145 -2.96358,1.08322 -7.04799,4.70301 -8.46749,7.504263 -1.26988,2.50598 -1.4418,3.31861 -1.44096,6.8109 9.1e-4,3.76575 0.35877,5.3197 1.63597,7.10401 0.88618,1.23802 0.87244,1.59313 -0.0427,1.10336 -0.98731,-0.5284 -2.30508,-0.3733 -3.30439,0.3889 -0.50575,0.38576 -0.91956,0.62269 -0.91956,0.52652 0,-0.0962 0.3473,-0.84638 0.77177,-1.66711 1.08986,-2.10727 1.37241,-3.17996 1.38123,-5.24375 0.0132,-3.09912 -1.2537,-5.44856 -3.12775,-5.80013 -1.26085,-0.23655 -3.45922,0.90636 -4.96514,2.58132 -1.44568,1.60795 -2.94632,4.55629 -3.3781,6.63702 -0.39214,1.88969 -0.0962,2.85346 1.55574,5.06607 0.63966,0.85678 1.1111,1.6097 1.04764,1.67316 -0.0635,0.0634 -0.47772,-0.072 -0.92058,-0.30101 -0.44285,-0.22901 -0.98782,-0.41638 -1.21103,-0.41638 -0.7309,0 -1.99207,1.41859 -3.05791,3.43958 -1.09661,2.07935 -1.32069,2.27774 -0.67842,0.60067 0.5545,-1.44791 1.39126,-4.52917 1.57322,-5.79324 0.12404,-0.86165 0.0421,-1.23776 -0.3891,-1.78593 -0.30042,-0.38193 -0.80547,-0.69326 -1.12233,-0.69183 -0.91144,0.004 -3.30153,1.22693 -4.72108,2.41544 -1.26966,1.06302 -1.81061,1.28643 -1.19121,0.49197 0.37181,-0.47689 3.11016,-2.78383 3.4841,-2.93519 0.14552,-0.0589 1.05896,-0.55864 2.02987,-1.11051 2.11404,-1.20165 3.49369,-2.65874 4.34931,-4.59346 1.16857,-2.64237 0.65993,-4.44508 -1.43097,-5.07153 -1.67986,-0.50331 -6.33339,-0.39227 -7.59405,0.1812 -1.26507,0.57547 -1.54384,0.8952 -1.99234,2.28509 l -0.3415,1.05834 -0.29959,-0.8895 c -0.65285,-1.93837 -1.73687,-1.99389 -5.41193,-0.27717 -2.17707,1.01698 -3.02046,1.22689 -1.81862,0.45263 0.33196,-0.21385 1.6408,-0.95151 2.90853,-1.63924 2.10112,-1.13983 3.64816,-2.45421 3.64816,-3.09951 0,-0.13903 -0.18016,-0.68396 -0.40035,-1.21096 -0.22019,-0.52699 -0.36234,-0.996177 -0.31589,-1.042627 0.0465,-0.0465 0.764,0.423817 1.59455,1.045037 2.01338,1.50596 3.18353,1.78385 8.64669,2.0535 5.60397,0.2766 7.01135,0.0766 10.03939,-1.42675 1.81254,-0.89987 2.74121,-1.608537 4.92076,-3.755033 7.0673,-6.96011 8.75733,-11.04052 5.91404,-14.27885 -1.63913,-1.86686 -4.05867,-2.28325 -9.88179,-1.7006 -7.48539,0.74898 -10.10329,1.84538 -12.38146,5.18545 -0.94592,1.38683 -0.99219,1.55501 -0.99219,3.60607 v 2.15139 l -0.66905,-0.98459 c -0.94943,-1.39722 -1.86007,-1.78408 -4.19958,-1.78408 -4.14008,0 -6.07055,0.7864 -8.75741,3.56744 -1.01865,1.05435 -2.2688,2.11829 -2.77813,2.36431 l -0.92604,0.44731 1.12334,-1.00672 c 1.80197,-1.61491 2.44854,-2.66822 2.44854,-3.98889 0,-1.80826 -0.80834,-2.44091 -4.99881,-3.91232 -0.20273,-0.0712 -0.31708,-0.18094 -0.25411,-0.24391 0.16711,-0.16711 3.67199,0.59871 4.02608,0.87971 0.8248,0.65456 3.6272,1.3639 5.38837,1.3639 2.27196,0 5.31829,-0.55825 6.99586,-1.28201 2.57687,-1.11175 4.97479,-4.13826 4.97971,-6.28506 0.005,-2.27657 -2.93575,-4.99322 -5.33175,-4.9251 -0.76333,0.0217 -2.30741,0.73102 -2.73556,1.25665 -0.14552,0.17865 -0.61963,0.54731 -1.05358,0.81923 -0.43395,0.27193 0.0497,-0.33902 1.07474,-1.35767 2.28524,-2.27095 3.12803,-3.90728 3.06617,-5.953123 -0.0379,-1.25288 -0.15498,-1.55638 -0.84223,-2.18282 -0.733,-0.66813 -0.97336,-0.7276 -2.94086,-0.7276 -3.52332,0 -4.8565,1.16754 -7.01228,6.141063 -1.09921,2.53596 -1.94925,3.9278 -1.94925,3.19167 0,-0.16812 0.11906,-0.37925 0.26458,-0.46919 0.14552,-0.0899 0.26458,-0.68953 0.26458,-1.33243 0,-0.96719 -0.11884,-1.24678 -0.68866,-1.62014 -0.6041,-0.39582 -0.9534,-0.41678 -2.84427,-0.1707 -1.18559,0.1543 -2.39373,0.37213 -2.68477,0.48408 -0.34221,0.13162 -0.43569,0.1133 -0.26459,-0.0518 0.14552,-0.14046 1.21709,-0.53689 2.38125,-0.88097 4.5905,-1.356733 6.7561,-2.783483 6.80441,-4.482903 0.0367,-1.29133 -0.90868,-2.05957 -3.10782,-2.5254 -1.01448,-0.2149 -2.38029,-0.40465 -3.03513,-0.42169 -0.65484,-0.017 -1.48828,-0.132 -1.85208,-0.2555 -0.39994,-0.13576 0.39908,-0.16915 2.02098,-0.0845 5.29369,0.27644 6.40092,0.15019 7.03695,-0.80235 0.28432,-0.42581 0.24457,-1.70248 -0.0714,-2.29288 -0.53267,-0.99531 -0.0345,-0.49412 0.7973,0.80216 1.97656,3.0802 4.07382,4.16666 7.53747,3.9047 2.46993,-0.1868 3.86526,-0.6184 4.98612,-1.54231 1.19045,-0.98127 1.41639,-2.09077 0.71723,-3.52206 -1.04845,-2.14636 -2.91287,-3.6527 -5.91608,-4.77985 -1.82773,-0.68598 -3.8794,-1.65443 -3.8794,-1.83119 0,-0.0528 0.7846,0.14346 1.74356,0.43617 1.73514,0.52962 1.74692,0.52968 2.4411,0.0114 0.38365,-0.28644 0.75991,-0.78085 0.83613,-1.09869 0.11667,-0.48649 0.3568,-0.24773 1.51812,1.50947 1.88029,2.84509 5.85539,7.21702 7.4592,8.20385 1.52428,0.9379 2.87374,1.35366 7.40155,2.28038 4.13683,0.84669 7.44941,0.90467 8.68385,0.15199 2.76625,-1.68668 1.98542,-6.01092 -1.77704,-9.84114 -1.16154,-1.18247 -2.31359,-2.05846 -3.33298,-2.53434 -1.41572,-0.6609 -1.88993,-0.73583 -5.19726,-0.82123 -2.2176,-0.0573 -3.96571,0.0198 -4.47467,0.1972 -1.06153,0.37005 -1.14918,0.26736 -0.48859,-0.57244 0.29308,-0.37259 0.53287,-0.98608 0.53287,-1.36331 0,-0.77798 0.30334,-0.8799 0.80823,-0.27155 1.3709,1.65183 5.49215,1.54067 6.69781,-0.18066 0.93851,-1.33991 0.35635,-3.78959 -1.52821,-6.43056 -2.16429,-3.03298 -4.36385,-4.54627 -7.76141,-5.33979 -3.31364,-0.77393 -5.31537,-0.0894 -8.53023,2.91711 -2.01906,1.8882 -3.76649,3.02292 -5.29661,3.43944 -0.3638,0.099 0.0529,-0.21297 0.92604,-0.69334 1.91869,-1.0556 3.69023,-2.80361 4.10015,-4.04568 0.5387,-1.63228 0.0438,-2.16492 -3.7812,-4.06992 -3.4663,-1.72634 -4.28091,-2.35107 -1.74241,-1.33627 2.19615,0.87795 6.51772,2.07844 8.5282,2.36906 2.20083,0.31812 3.68855,-0.006 4.29851,-0.93713 0.5437,-0.8298 0.52718,-2.82512 -0.0372,-4.48733 -0.92288,-2.71827 -2.36475,-4.21195 -4.35464,-4.51109 -2.55244,-0.38372 -5.54559,-1.2841 -5.25031,-1.57938 0.0542,-0.0542 0.93027,0.13563 1.94683,0.42184 3.01698,0.84944 4.62126,0.23001 4.70205,-1.81553 0.0244,-0.61742 0.10664,-1.11861 0.18278,-1.11375 0.0761,0.005 0.49563,0.62792 0.93219,1.38456 1.28909,2.23423 2.47858,2.25259 4.09152,0.0632 0.54944,-0.74581 0.57395,-0.7541 0.39525,-0.13367 -0.10479,0.36381 -0.59163,1.46216 -1.08187,2.4408 -0.68762,1.37264 -0.89136,2.11118 -0.89136,3.23122 0,2.89555 1.92322,6.52549 4.46378,8.42508 0.81914,0.61248 2.39271,2.0179 3.49682,3.12315 1.69588,1.69764 2.2237,2.45763 3.40052,4.89622 2.64618,5.48342 5.08446,8.3553 8.70223,10.24979 3.19277,1.67193 5.28309,1.51816 6.82313,-0.50193 0.72176,-0.94673 0.76147,-1.13548 0.74352,-3.5338 -0.0149,-1.99473 -0.13973,-2.80136 -0.58669,-3.79224 -1.36842,-3.03366 -4.56968,-6.7407 -6.75571,-7.82307 -0.80655,-0.39935 -2.28504,-0.75135 -4.21641,-1.00384 -3.14901,-0.41168 -4.99248,-1.08471 -6.41389,-2.34166 l -0.79375,-0.70191 1.21297,0.67703 c 1.78139,0.9943 3.58284,1.46574 5.61319,1.46897 3.48829,0.006 4.28987,-1.08406 4.27998,-5.81797 -0.005,-2.32287 -0.11026,-3.23505 -0.44557,-3.85573 -0.79659,-1.47452 -1.07207,-1.57065 -4.28266,-1.49445 -1.61608,0.0384 -3.09632,-0.0348 -3.28941,-0.1625 -0.21812,-0.14429 0.33301,-0.22677 1.45521,-0.21779 3.44222,0.0276 4.47658,-1.70042 2.38954,-3.99193 -0.93502,-1.02662 -0.38684,-0.86279 1.61942,0.48397 1.06588,0.71551 2.19055,1.30093 2.49926,1.30093 0.79896,0 2.47687,-1.23541 3.14402,-2.31488 0.31218,-0.50512 0.82802,-1.76849 1.1463,-2.80749 l 0.57871,-1.889091 0.4407,0.848031 c 0.51847,0.99769 1.78862,1.3634 3.12147,0.89877 1.92121,-0.66974 0.89572,0.14301 -1.69158,1.34065 -2.36646,1.09542 -3.83244,2.94889 -4.98706,6.30526 -0.50218,1.45977 -0.59393,2.29984 -0.60682,5.55625 -0.0142,3.58622 0.0293,3.93137 0.66635,5.29167 0.37485,0.80036 1.60547,2.5863 2.73471,3.96875 2.66042,3.25694 3.74904,4.87721 5.28992,7.87335 2.872,5.58441 5.98886,6.09574 8.45496,1.38706 1.04352,-1.99247 1.55931,-4.67842 1.43249,-7.45978 -0.0977,-2.14333 -0.24233,-2.75326 -1.11697,-4.71105 -0.55259,-1.23693 -1.43931,-3.26099 -1.97047,-4.49792 -0.77572,-1.80644 -1.29608,-2.57434 -2.64455,-3.9026 l -1.6788,-1.65365 h 1.24192 c 1.05983,0 1.3598,-0.12608 2.04591,-0.85989 0.4422,-0.47295 0.92045,-1.1934 1.06279,-1.60101 0.47906,-1.37191 0.51148,-0.50831 0.0519,1.38257 -0.85529,3.51898 -0.20218,6.20973 2.29404,9.45127 1.16696,1.51537 2.23224,2.09781 3.33663,1.82427 1.50186,-0.37198 4.42284,-4.23819 5.36913,-7.10657 0.66312,-2.01008 1.14591,-6.64522 0.99422,-9.5453 -0.18735,-3.58184 -0.84888,-4.838161 -3.91924,-7.443102 -2.22101,-1.884351 -4.22492,-4.017402 -4.22492,-4.497203 0,-0.11907 -0.20835,-0.46088 -0.46302,-0.75956 -0.25466,-0.29869 0.56692,0.40631 1.82573,1.566671 3.93215,3.624602 6.47407,4.714552 7.93533,3.402582 0.61396,-0.55124 2.60479,-3.388652 2.6141,-3.725732 0.003,-0.117131 0.23771,-0.510611 0.52107,-0.874421 0.35249,-0.45257 0.189,0.1741 -0.5177,1.984381 -0.56808,1.455211 -1.11376,3.257372 -1.21262,4.004802 -0.155,1.171911 -0.10276,1.435951 0.37952,1.918232 0.34459,0.34459 0.89629,0.55926 1.43728,0.55926 1.84067,0 5.36431,-1.417031 8.96958,-3.607112 0.85828,-0.52138 1.61337,-0.89512 1.67797,-0.83052 0.0646,0.0646 -0.25519,0.55371 -0.71065,1.08692 -0.57019,0.66754 -1.04817,0.969461 -1.53474,0.969461 -0.38866,0 -1.65343,0.46009 -2.8106,1.02241 -1.15718,0.562331 -3.25861,1.403521 -4.66986,1.869311 -1.41125,0.4658 -2.86207,1.07986 -3.22404,1.36459 -1.25721,0.98892 -1.90759,5.19527 -1.19827,7.74988 0.90477,3.25854 4.55036,3.05266 8.00832,-0.45225 1.62001,-1.64201 2.91319,-3.95716 3.21795,-5.76103 0.0958,-0.56673 0.28268,-1.03041 0.41541,-1.03041 0.13273,0 0.24133,0.12448 0.24133,0.27661 0,0.15214 0.29224,0.56886 0.64943,0.92604 0.77123,0.77123 2.12918,0.85917 3.85649,0.24973 2.07247,-0.7312 1.35992,-0.22398 -1.52451,1.08522 -2.63777,1.19725 -3.05042,1.49201 -5.56269,3.97359 -2.39795,2.36864 -3.08764,2.87675 -5.92968,4.36846 -4.54511,2.38563 -6.4706,4.26075 -9.08364,8.84604 -1.86257,3.26839 -2.38144,5.22532 -2.38144,8.9816 0,2.81172 0.0722,3.32176 0.63143,4.45763 0.75955,1.54289 1.86735,2.28691 3.40705,2.28826 1.40773,10e-4 1.61843,-0.11991 5.34885,-3.07524 1.67645,-1.32813 3.88152,-2.96138 4.90017,-3.62946 3.68464,-2.41656 3.66626,-2.3815 3.83646,-7.31723 l 0.13229,-3.83646 0.41831,2.91042 c 0.49239,3.42578 1.01751,4.67613 2.29562,5.46605 2.02417,1.251 5.98163,0.3223 7.66075,-1.79776 1.60822,-2.03054 3.60253,-7.16469 3.93347,-10.12629 l 0.18946,-1.69549 0.51232,0.70331 c 0.59553,0.81752 1.58353,0.9131 3.24632,0.31406 1.86257,-0.67101 1.84852,-0.43663 -0.0539,0.89939 -2.31985,1.62916 -3.63511,3.12371 -4.61029,5.23873 -0.9818,2.12939 -1.01968,3.70429 -0.10966,4.55921 0.59095,0.55518 0.80121,0.59366 2.31063,0.42288 0.91329,-0.10332 2.88195,-0.47647 4.3748,-0.82921 1.49285,-0.35273 2.80455,-0.63349 2.91489,-0.62389 0.11033,0.01 -1.16861,0.46651 -2.8421,1.01536 -5.31104,1.74186 -6.35515,2.53914 -5.8384,4.4582 0.26939,1.00043 2.21434,3.11262 4.38848,4.76583 0.71485,0.54356 0.65283,0.53396 -0.66433,-0.1029 -0.91452,-0.44218 -2.39788,-1.61813 -4.00356,-3.17387 -1.40292,-1.35928 -2.87027,-2.59289 -3.26078,-2.74137 -0.97133,-0.36929 -2.36068,-0.32434 -4.24745,0.13743 -0.87312,0.21369 -2.38185,0.50535 -3.35272,0.64814 -3.65496,0.53754 -6.4907,1.86206 -8.79036,4.10582 -2.17595,2.12306 -3.20399,4.16855 -3.19044,6.34804 0.0161,2.58585 1.21628,4.30221 7.76898,11.10999 2.24241,2.329713 5.23611,5.545533 6.65265,7.146263 3.19868,3.61459 4.22653,4.59133 7.41404,7.04538 3.82672,2.94617 5.38166,4.30942 8.71313,7.63899 7.85788,7.853433 12.61637,16.514403 15.6997,28.575073 1.26112,4.93298 1.75574,9.00657 1.75889,14.48593 l 0.002,3.77032 -0.99219,-0.0445 c -0.5457,-0.0245 -1.69932,-0.11376 -2.56361,-0.19844 z m -88.26497,-61.270583 c 5.27691,-0.92865 7.76886,-2.20878 8.88714,-4.56539 0.40095,-0.84494 0.40153,-1.00213 0.008,-2.03386 -0.80533,-2.108733 -3.04508,-3.501903 -7.82596,-4.867903 -4.01468,-1.14707 -5.66977,-1.44153 -8.20209,-1.45925 -1.87253,-0.0131 -2.49252,0.0969 -3.70416,0.65726 -1.98076,0.91605 -2.96832,1.80965 -3.84011,3.47473 -1.13759,2.172773 -0.89639,2.863563 1.8871,5.404623 1.24391,1.13558 2.61063,2.28581 3.03716,2.55608 1.91498,1.21344 5.73852,1.54027 9.75341,0.83371 z m 17.33556,-61.914695 c -0.11242,-0.29105 -0.60377,-1.40914 -1.09189,-2.484661 -0.48811,-1.075521 -0.88748,-2.006361 -0.88748,-2.068541 0,-0.0622 0.3458,0.13319 0.76845,0.43414 0.91559,0.65196 1.80859,0.69821 2.61226,0.1353 0.73116,-0.51212 0.73337,-0.37967 0.017,1.017731 -0.3141,0.61267 -0.71572,1.649721 -0.89248,2.304571 -0.26574,0.98442 -0.3568,1.098981 -0.52581,0.66146 z"
           id="path6" /><ellipse
           style="opacity:0.96;fill:none;fill-opacity:1;stroke:#ff8080;stroke-width:5;stroke-linecap:round;stroke-dasharray:none;stroke-opacity:1;paint-order:markers stroke fill"
           id="path7"
           cx="-418.7576"
           cy="77.272903"
           rx="6.0000052"
           ry="6.0000196" /><path
           style="fill:#ff0000;stroke:none;stroke-width:0.264583px;stroke-linecap:butt;stroke-linejoin:miter;stroke-opacity:1"
           d="m -356.66364,152.55971 c -0.28013,4.72562 -0.75219,6.67651 -1.61792,8.23826 -2.39928,0.0159 -4.38169,-0.25295 -6.95035,-1.01153 1.44502,-3.48614 1.88956,-4.55515 2.16222,-7.89616 z"
           id="path10-6-8"
           sodipodi:nodetypes="ccccc" /><path
           style="fill:#ff0000;stroke:none;stroke-width:0.264583px;stroke-linecap:butt;stroke-linejoin:miter;stroke-opacity:1"
           d="m -361.46417,172.09592 c -10.4748,47.03264 25.87853,54.29813 40.49411,82.54362 -1.10523,1.63419 1.51653,-1.15943 0,0 -9.04434,-10.80013 -42.79102,-31.44285 -46.79377,-56.80004 -2.64447,-16.75254 0.61205,-25.01049 0.63849,-26.44783 z"
           id="path10-6-8-3"
           sodipodi:nodetypes="cccscc" /></g></g><text
       xml:space="preserve"
       style="font-size:35.2778px;line-height:0%;font-family:Arial;-inkscape-font-specification:Arial;letter-spacing:0px;word-spacing:0px;stroke-width:0.264583"
       x="-454.86905"
       y="320.64832"
       id="text11"><tspan
         sodipodi:role="line"
         id="tspan11"
         style="font-style:normal;font-variant:normal;font-weight:bold;font-stretch:normal;font-size:35.2778px;font-family:'DejaVu Sans';-inkscape-font-specification:'DejaVu Sans Bold';stroke-width:0.264583"
         x="-454.86905"
         y="320.64832"><tspan
           style="font-style:normal;font-variant:normal;font-weight:bold;font-stretch:normal;font-family:'DejaVu Sans';-inkscape-font-specification:'DejaVu Sans Bold';fill:#ff0000"
           id="tspan14">jar</tspan><tspan
           style="font-style:normal;font-variant:normal;font-weight:bold;font-stretch:normal;font-family:'DejaVu Sans';-inkscape-font-specification:'DejaVu Sans Bold';fill:#000080"
           id="tspan15">designer</tspan></tspan></text></g></svg>
